<svg width="212" height="212" viewBox="0 0 212 212" fill="none" xmlns="http://www.w3.org/2000/svg">
<rect width="212" height="212" fill="#535353"/>
<path d="M97.8807 125.818V125.273C97.9413 119.485 98.5473 114.879 99.6989 111.455C100.85 108.03 102.487 105.258 104.608 103.136C106.729 101.015 109.275 99.0606 112.244 97.2727C114.032 96.1818 115.638 94.8939 117.062 93.4091C118.487 91.8939 119.608 90.1515 120.426 88.1818C121.275 86.2121 121.699 84.0303 121.699 81.6364C121.699 78.6667 121.002 76.0909 119.608 73.9091C118.214 71.7273 116.35 70.0455 114.017 68.8636C111.684 67.6818 109.093 67.0909 106.244 67.0909C103.759 67.0909 101.366 67.6061 99.0625 68.6364C96.7595 69.6667 94.8352 71.2879 93.2898 73.5C91.7443 75.7121 90.8504 78.6061 90.608 82.1818H79.1534C79.3958 77.0303 80.7292 72.6212 83.1534 68.9545C85.608 65.2879 88.8352 62.4848 92.8352 60.5454C96.8655 58.6061 101.335 57.6364 106.244 57.6364C111.578 57.6364 116.214 58.697 120.153 60.8182C124.123 62.9394 127.184 65.8485 129.335 69.5454C131.517 73.2424 132.608 77.4545 132.608 82.1818C132.608 85.5151 132.093 88.5303 131.062 91.2273C130.062 93.9242 128.608 96.3333 126.699 98.4545C124.82 100.576 122.547 102.455 119.881 104.091C117.214 105.758 115.078 107.515 113.472 109.364C111.866 111.182 110.699 113.348 109.972 115.864C109.244 118.379 108.85 121.515 108.79 125.273V125.818H97.8807ZM103.699 152.727C101.456 152.727 99.5322 151.924 97.9261 150.318C96.3201 148.712 95.517 146.788 95.517 144.545C95.517 142.303 96.3201 140.379 97.9261 138.773C99.5322 137.167 101.456 136.364 103.699 136.364C105.941 136.364 107.866 137.167 109.472 138.773C111.078 140.379 111.881 142.303 111.881 144.545C111.881 146.03 111.502 147.394 110.744 148.636C110.017 149.879 109.032 150.879 107.79 151.636C106.578 152.364 105.214 152.727 103.699 152.727Z" fill="#212121"/>
</svg>
